Normalized EMG Linear Envelopes
nRows=49
nColumns=17

endheader
time	        VM	        VL	        RF	       GRA	        TA	   ADDLONG	   SEMIMEM	      BFLH	        GM	        GL	       TFL	   GLUTMAX	   GLUTMED	      PIRI	    OBTINT	        QF	
2.095	  0.031533	  0.056315	  0.226771	  0.226244	  0.276329	  0.148893	  0.014601	  0.055448	  0.059980	  0.020431	  0.197770	  0.006341	  0.280733	  0.120352	  0.059036	  0.071611	
2.0955	  0.031584	  0.056232	  0.226510	  0.225306	  0.276937	  0.147188	  0.014788	  0.055313	  0.060870	  0.020265	  0.196270	  0.006410	  0.280174	  0.121224	  0.059472	  0.071235	
2.096	  0.031636	  0.056146	  0.226227	  0.224376	  0.277537	  0.145494	  0.014988	  0.055178	  0.061770	  0.020102	  0.194755	  0.006487	  0.279568	  0.122098	  0.059944	  0.070866	
2.0965	  0.031689	  0.056058	  0.225922	  0.223455	  0.278130	  0.143811	  0.015200	  0.055042	  0.062678	  0.019942	  0.193224	  0.006570	  0.278919	  0.122974	  0.060451	  0.070505	
2.097	  0.031742	  0.055967	  0.225594	  0.222543	  0.278716	  0.142141	  0.015426	  0.054906	  0.063596	  0.019785	  0.191678	  0.006662	  0.278228	  0.123852	  0.060995	  0.070151	
2.0975	  0.031797	  0.055873	  0.225245	  0.221642	  0.279294	  0.140481	  0.015664	  0.054771	  0.064524	  0.019631	  0.190117	  0.006761	  0.277498	  0.124733	  0.061575	  0.069804	
2.098	  0.031853	  0.055775	  0.224874	  0.220751	  0.279863	  0.138834	  0.015917	  0.054637	  0.065461	  0.019482	  0.188541	  0.006868	  0.276733	  0.125616	  0.062194	  0.069466	
2.0985	  0.031910	  0.055674	  0.224482	  0.219873	  0.280424	  0.137198	  0.016184	  0.054504	  0.066407	  0.019336	  0.186951	  0.006983	  0.275936	  0.126502	  0.062851	  0.069135	
2.099	  0.031968	  0.055570	  0.224069	  0.219006	  0.280976	  0.135574	  0.016466	  0.054374	  0.067362	  0.019194	  0.185347	  0.007106	  0.275109	  0.127390	  0.063547	  0.068812	
2.0995	  0.032028	  0.055462	  0.223634	  0.218152	  0.281518	  0.133961	  0.016762	  0.054246	  0.068327	  0.019056	  0.183730	  0.007238	  0.274256	  0.128281	  0.064284	  0.068498	
2.1	  0.032089	  0.055351	  0.223178	  0.217311	  0.282050	  0.132360	  0.017075	  0.054121	  0.069300	  0.018922	  0.182100	  0.007379	  0.273379	  0.129175	  0.065061	  0.068193	
2.1005	  0.032152	  0.055235	  0.222700	  0.216483	  0.282571	  0.130769	  0.017403	  0.054000	  0.070283	  0.018793	  0.180457	  0.007529	  0.272481	  0.130072	  0.065879	  0.067896	
2.101	  0.032216	  0.055116	  0.222202	  0.215669	  0.283082	  0.129190	  0.017747	  0.053882	  0.071274	  0.018669	  0.178803	  0.007687	  0.271566	  0.130972	  0.066739	  0.067608	
2.1015	  0.032283	  0.054993	  0.221683	  0.214870	  0.283582	  0.127623	  0.018109	  0.053769	  0.072275	  0.018549	  0.177138	  0.007855	  0.270635	  0.131877	  0.067641	  0.067330	
2.102	  0.032351	  0.054866	  0.221142	  0.214085	  0.284070	  0.126067	  0.018488	  0.053661	  0.073284	  0.018434	  0.175462	  0.008033	  0.269693	  0.132785	  0.068587	  0.067061	
2.1025	  0.032421	  0.054735	  0.220581	  0.213314	  0.284547	  0.124523	  0.018884	  0.053558	  0.074301	  0.018325	  0.173776	  0.008220	  0.268741	  0.133699	  0.069577	  0.066802	
2.103	  0.032493	  0.054599	  0.220000	  0.212559	  0.285012	  0.122990	  0.019299	  0.053460	  0.075327	  0.018220	  0.172082	  0.008417	  0.267781	  0.134617	  0.070612	  0.066554	
2.1035	  0.032568	  0.054460	  0.219397	  0.211819	  0.285465	  0.121469	  0.019732	  0.053368	  0.076361	  0.018122	  0.170379	  0.008625	  0.266818	  0.135542	  0.071692	  0.066315	
2.104	  0.032645	  0.054317	  0.218773	  0.211094	  0.285906	  0.119961	  0.020185	  0.053283	  0.077402	  0.018028	  0.168669	  0.008843	  0.265852	  0.136474	  0.072818	  0.066087	
2.1045	  0.032724	  0.054169	  0.218128	  0.210385	  0.286335	  0.118465	  0.020657	  0.053205	  0.078452	  0.017941	  0.166952	  0.009071	  0.264888	  0.137413	  0.073990	  0.065870	
2.105	  0.032806	  0.054018	  0.217463	  0.209692	  0.286752	  0.116981	  0.021149	  0.053134	  0.079508	  0.017860	  0.165229	  0.009311	  0.263926	  0.138361	  0.075210	  0.065665	
2.1055	  0.032892	  0.053864	  0.216776	  0.209015	  0.287156	  0.115510	  0.021661	  0.053071	  0.080572	  0.017784	  0.163501	  0.009562	  0.262971	  0.139319	  0.076478	  0.065471	
2.106	  0.032980	  0.053705	  0.216068	  0.208354	  0.287548	  0.114052	  0.022196	  0.053017	  0.081643	  0.017715	  0.161769	  0.009824	  0.262024	  0.140288	  0.077795	  0.065290	
2.1065	  0.033071	  0.053543	  0.215339	  0.207709	  0.287926	  0.112608	  0.022752	  0.052971	  0.082721	  0.017652	  0.160033	  0.010097	  0.261088	  0.141268	  0.079161	  0.065121	
2.107	  0.033166	  0.053378	  0.214588	  0.207081	  0.288292	  0.111177	  0.023330	  0.052935	  0.083805	  0.017596	  0.158294	  0.010383	  0.260166	  0.142261	  0.080577	  0.064967	
2.1075	  0.033265	  0.053209	  0.213816	  0.206469	  0.288645	  0.109760	  0.023932	  0.052910	  0.084895	  0.017547	  0.156553	  0.010680	  0.259259	  0.143267	  0.082044	  0.064827	
2.108	  0.033367	  0.053037	  0.213022	  0.205874	  0.288985	  0.108356	  0.024557	  0.052895	  0.085991	  0.017504	  0.154810	  0.010990	  0.258371	  0.144288	  0.083561	  0.064702	
2.1085	  0.033473	  0.052862	  0.212206	  0.205297	  0.289310	  0.106967	  0.025207	  0.052891	  0.087093	  0.017468	  0.153067	  0.011313	  0.257504	  0.145324	  0.085130	  0.064593	
2.109	  0.033583	  0.052684	  0.211368	  0.204736	  0.289622	  0.105591	  0.025883	  0.052900	  0.088200	  0.017440	  0.151323	  0.011648	  0.256661	  0.146376	  0.086751	  0.064502	
2.1095	  0.033697	  0.052503	  0.210509	  0.204193	  0.289919	  0.104230	  0.026584	  0.052920	  0.089311	  0.017418	  0.149579	  0.011997	  0.255844	  0.147445	  0.088424	  0.064429	
2.11	  0.033816	  0.052319	  0.209627	  0.203666	  0.290201	  0.102884	  0.027311	  0.052954	  0.090428	  0.017405	  0.147836	  0.012359	  0.255055	  0.148532	  0.090151	  0.064375	
2.1105	  0.033939	  0.052132	  0.208723	  0.203158	  0.290468	  0.101552	  0.028066	  0.053002	  0.091549	  0.017398	  0.146095	  0.012735	  0.254298	  0.149638	  0.091931	  0.064342	
2.111	  0.034066	  0.051943	  0.207798	  0.202666	  0.290720	  0.100235	  0.028848	  0.053065	  0.092673	  0.017400	  0.144356	  0.013125	  0.253574	  0.150764	  0.093766	  0.064331	
2.1115	  0.034199	  0.051751	  0.206850	  0.202192	  0.290956	  0.098933	  0.029659	  0.053142	  0.093801	  0.017410	  0.142619	  0.013530	  0.252886	  0.151911	  0.095654	  0.064343	
2.112	  0.034336	  0.051556	  0.205881	  0.201736	  0.291176	  0.097647	  0.030500	  0.053235	  0.094931	  0.017427	  0.140886	  0.013950	  0.252236	  0.153080	  0.097599	  0.064379	
2.1125	  0.034478	  0.051359	  0.204890	  0.201296	  0.291380	  0.096375	  0.031370	  0.053345	  0.096064	  0.017453	  0.139156	  0.014385	  0.251627	  0.154272	  0.099598	  0.064441	
2.113	  0.034625	  0.051160	  0.203877	  0.200874	  0.291568	  0.095120	  0.032272	  0.053473	  0.097199	  0.017487	  0.137431	  0.014835	  0.251061	  0.155489	  0.101654	  0.064529	
2.1135	  0.034777	  0.050958	  0.202841	  0.200469	  0.291738	  0.093880	  0.033205	  0.053618	  0.098336	  0.017530	  0.135711	  0.015301	  0.250539	  0.156730	  0.103766	  0.064644	
2.114	  0.034934	  0.050754	  0.201784	  0.200081	  0.291891	  0.092655	  0.034171	  0.053783	  0.099474	  0.017581	  0.133996	  0.015783	  0.250065	  0.157997	  0.105936	  0.064789	
2.1145	  0.035097	  0.050548	  0.200704	  0.199710	  0.292026	  0.091446	  0.035169	  0.053967	  0.100612	  0.017642	  0.132286	  0.016282	  0.249640	  0.159290	  0.108162	  0.064964	
2.115	  0.035265	  0.050340	  0.199602	  0.199356	  0.292143	  0.090254	  0.036202	  0.054172	  0.101751	  0.017711	  0.130582	  0.016798	  0.249267	  0.160612	  0.110447	  0.065171	
2.1155	  0.035439	  0.050129	  0.198477	  0.199020	  0.292241	  0.089077	  0.037270	  0.054399	  0.102891	  0.017790	  0.128885	  0.017331	  0.248946	  0.161961	  0.112789	  0.065411	
2.116	  0.035618	  0.049917	  0.197329	  0.198700	  0.292320	  0.087916	  0.038374	  0.054648	  0.104031	  0.017878	  0.127194	  0.017881	  0.248680	  0.163339	  0.115191	  0.065685	
2.1165	  0.035803	  0.049702	  0.196158	  0.198397	  0.292380	  0.086771	  0.039514	  0.054920	  0.105170	  0.017975	  0.125509	  0.018449	  0.248472	  0.164748	  0.117651	  0.065995	
2.117	  0.035993	  0.049485	  0.194964	  0.198111	  0.292420	  0.085642	  0.040692	  0.055216	  0.106310	  0.018082	  0.123832	  0.019036	  0.248322	  0.166186	  0.120170	  0.066343	
2.1175	  0.036189	  0.049266	  0.193747	  0.197843	  0.292440	  0.084530	  0.041907	  0.055536	  0.107449	  0.018199	  0.122162	  0.019640	  0.248233	  0.167656	  0.122748	  0.066729	
2.118	  0.036391	  0.049046	  0.192505	  0.197591	  0.292439	  0.083434	  0.043162	  0.055882	  0.108588	  0.018326	  0.120499	  0.020264	  0.248206	  0.169157	  0.125387	  0.067154	
2.1185	  0.036599	  0.048823	  0.191239	  0.197357	  0.292418	  0.082354	  0.044457	  0.056254	  0.109726	  0.018463	  0.118844	  0.020907	  0.248243	  0.170691	  0.128085	  0.067621	
2.119	  0.036813	  0.048597	  0.189948	  0.197140	  0.292375	  0.081291	  0.045793	  0.056653	  0.110865	  0.018610	  0.117197	  0.021569	  0.248346	  0.172259	  0.130844	  0.068131	
